.
 
http://www.scenetime.com    -  Hottest private tracker on the net. !!!

New release on http://www.scenetime.com

        Seed back for speed


...................................NFO:.................................................








































          
          
              
              
                    
                    
                    
                    

Burlesque.Massacre.2011.VODRiP.XviD-SiC

Poster:
[img]http://img32.imageshack.us/img32/4552/burlesqueposter2.jpg[/img]

IMDB Link: 
http://www.imdb.com/title/tt1423628/

Description: 70s style slasher film about a serial killer and Burlesque Dancers





General
Complete name                    : Burlesque.Massacre.2011.VODRiP.XviD-SiC.avi
Format                           : AVI
Format/Info                      : Audio Video Interleave
File size                        : 1.33 GiB
Duration                         : 1h 21mn
Overall bit rate                 : 2 343 Kbps

Video
ID                               : 0
Format                           : MPEG-4 Visual
Format profile                   : Simple@L3
Format settings, BVOP            : 2
Format settings, QPel            : No
Format settings, GMC             : No warppoints
Format settings, Matrix          : Default (H.263)
Muxing mode                      : Packed bitstream
Codec ID                         : XVID
Codec ID/Hint                    : XviD
Duration                         : 1h 21mn
Bit rate                         : 2 078 Kbps
Width                            : 720 pixels
Height                           : 400 pixels
Display aspect ratio             : 16:9
Frame rate                       : 29.970 fps
Color space                      : YUV
Chroma subsampling               : 4:2:0
Bit depth                        : 8 bits
Scan type                        : Progressive
Compression mode                 : Lossy
Bits/(Pixel*Frame)               : 0.241
Stream size                      : 1.18 GiB (89%)
Writing library                  : XviD 1.0.3 (UTC 2004-12-20)

Audio
ID                               : 1
Format                           : AC-3
Format/Info                      : Audio Coding 3
Mode extension                   : CM (complete main)
Codec ID                         : 2000
Duration                         : 1h 21mn
Bit rate mode                    : Constant
Bit rate                         : 256 Kbps
Channel(s)                       : 2 channels
Channel positions                : Front: L R
Sampling rate                    : 48.0 KHz
Bit depth                        : 16 bits
Compression mode                 : Lossy
Stream size                      : 149 MiB (11%)
Alignment                        : Aligned on interleaves
Interleave, duration             : 64 ms (1.92 video frames)
Interleave, preload duration     : 384 ms
Title                            : Burlesque Massacre.avi_track_1_





















Screenshots:
[img]http://img515.imageshack.us/img515/6021/vlcsnap2012012321h23m38.png[/img]
[img]http://img856.imageshack.us/img856/6899/vlcsnap2012012321h24m01.png[/img]
[img]http://img201.imageshack.us/img201/8459/vlcsnap2012012321h23m42.png[/img]
[img]http://img341.imageshack.us/img341/3636/vlcsnap2012012321h23m44.png[/img]




Note :  

Source: Friend of a friend. 

Enjoy!

Respects to T00NG0D, CM8, Rx, ELEKTRI4KA, PA, YeFsTe, MrRep and everyone in the struggle...